<?xml version="1.0" standalone="no"?>
<!DOCTYPE svg PUBLIC "-//W3C//DTD SVG 20010904//EN"
 "http://www.w3.org/TR/2001/REC-SVG-20010904/DTD/svg10.dtd">
<svg version="1.0" xmlns="http://www.w3.org/2000/svg"
 width="600.000000pt" height="600.000000pt" viewBox="0 0 600.000000 600.000000"
 preserveAspectRatio="xMidYMid meet">
<metadata>
Created by potrace 1.14, written by Peter Selinger 2001-2017
</metadata>
<g transform="translate(0.000000,600.000000) scale(0.100000,-0.100000)"
fill="#000000" stroke="none">
<path d="M2734 5595 c-113 -26 -212 -62 -294 -108 -147 -81 -313 -238 -392
-369 -36 -60 -50 -74 -76 -79 -48 -10 -61 -25 -111 -129 -24 -52 -60 -120 -80
-150 -35 -55 -71 -153 -71 -193 0 -82 49 -148 148 -203 37 -20 69 -38 71 -40
2 -2 7 -21 11 -42 l7 -39 -149 -74 c-246 -122 -251 -133 -203 -449 43 -276 82
-573 111 -830 16 -141 33 -254 41 -267 7 -13 31 -32 53 -43 l40 -20 0 -65 c0
-36 7 -83 17 -107 23 -61 97 -171 140 -208 35 -31 60 -35 103 -16 13 5 15 -32
14 -306 0 -279 2 -320 19 -377 16 -54 17 -73 8 -126 -25 -139 -5 -339 49 -509
18 -55 28 -105 25 -117 -4 -11 5 -57 19 -102 13 -45 30 -101 36 -125 8 -31 20
-48 43 -62 46 -28 194 -60 278 -60 85 0 203 29 229 56 20 21 50 128 50 180 0
18 -9 57 -20 86 -28 74 -25 140 16 387 l35 215 55 72 c58 75 84 140 84 206 0
21 2 38 4 38 3 0 37 7 77 15 58 12 83 13 128 4 l56 -11 1 -51 c1 -36 11 -72
33 -117 29 -62 31 -71 31 -185 1 -266 39 -549 91 -666 16 -37 29 -74 29 -81 0
-26 44 -56 105 -71 142 -36 310 -51 441 -42 112 9 144 28 144 86 0 17 14 60
31 94 36 73 41 147 15 209 -9 21 -41 65 -72 99 -65 70 -64 57 -10 230 20 65
36 128 36 141 0 12 -13 40 -30 62 -17 23 -30 52 -30 69 0 17 -9 62 -19 100
-11 39 -36 141 -56 228 -20 87 -45 183 -56 214 -10 31 -19 58 -19 60 0 2 19
-6 42 -18 84 -43 217 -35 287 18 63 49 113 193 127 368 6 68 2 95 -20 179 -32
122 -48 158 -141 321 -86 152 -125 245 -160 387 -18 69 -41 128 -69 178 -90
156 -136 258 -136 300 0 36 8 50 58 108 66 78 127 170 118 179 -3 4 -6 1 -6
-5 0 -6 -13 -18 -30 -27 -19 -10 -30 -11 -30 -5 0 6 -5 8 -10 5 -6 -4 -8 -10
-5 -15 3 -5 0 -12 -7 -16 -7 -4 -10 -4 -6 1 4 4 3 14 -2 20 -7 9 7 27 51 65
49 43 69 69 97 129 72 157 89 222 102 374 12 139 29 189 30 85 0 -164 -40
-333 -115 -482 -30 -60 -53 -111 -51 -113 6 -6 59 74 88 132 62 123 114 357
106 478 -6 82 -32 148 -115 296 -72 127 -108 169 -222 257 -292 228 -500 329
-792 388 -163 33 -285 34 -425 1z m1231 -1623 c-3 -3 -11 0 -18 7 -9 10 -8 11
6 5 10 -3 15 -9 12 -12z m-5 -27 c-7 -9 -15 -13 -19 -10 -3 3 1 10 9 15 21 14
24 12 10 -5z"/>
</g>
</svg>
