<?xml version="1.0" encoding="UTF-8"?>
<svg version="1.1" xmlns="http://www.w3.org/2000/svg" width="125" height="150">
<path d="M0 0 C8.25257033 5.87282408 13.99193219 13.92478388 15.98046875 24.01953125 C16.09132813 24.88707031 16.2021875 25.75460938 16.31640625 26.6484375 C17.07566406 26.59042969 17.83492188 26.53242187 18.6171875 26.47265625 C19.61105469 26.42753906 20.60492188 26.38242187 21.62890625 26.3359375 C22.61503906 26.27792969 23.60117188 26.21992187 24.6171875 26.16015625 C27.31640625 26.6484375 27.31640625 26.6484375 28.96411133 28.58959961 C30.83326608 32.8175541 30.70113236 36.50684937 30.65234375 41.078125 C30.6648565 42.94401389 30.67789364 44.80989933 30.69140625 46.67578125 C30.69533321 49.60087368 30.69139531 52.52562381 30.67675781 55.45068359 C30.6681578 58.28534341 30.68991807 61.11858953 30.71484375 63.953125 C30.70149994 64.82000946 30.68815613 65.68689392 30.67440796 66.58004761 C30.75067887 72.89156218 32.32873181 75.78163932 36.31640625 80.6484375 C37.51529703 84.24510984 37.51650839 87.5692576 37.5546875 91.31640625 C37.56275925 92.07004959 37.57083099 92.82369293 37.57914734 93.60017395 C37.59297125 95.19639804 37.60370098 96.79265148 37.61157227 98.38891602 C37.62306547 100.01140075 37.64347519 101.63384847 37.6730957 103.25610352 C38.00721973 121.56199371 38.00721973 121.56199371 31.90380859 128.18017578 C28.92892978 130.92262731 26.34273281 132.29317339 22.31640625 132.6484375 C22.31640625 135.9484375 22.31640625 139.2484375 22.31640625 142.6484375 C-9.03359375 142.6484375 -40.38359375 142.6484375 -72.68359375 142.6484375 C-72.68359375 139.3484375 -72.68359375 136.0484375 -72.68359375 132.6484375 C-73.36421875 132.6071875 -74.04484375 132.5659375 -74.74609375 132.5234375 C-79.90208719 130.98760967 -83.49014538 127.61817426 -86.25512695 123.0546875 C-87.93066152 119.05929214 -88.16853347 115.54679052 -88.1875 111.28515625 C-88.1974852 110.49373734 -88.2074704 109.70231842 -88.21775818 108.88691711 C-88.23288513 107.21869094 -88.23998566 105.55037476 -88.23950195 103.88208008 C-88.24605015 101.35277777 -88.30054116 98.82743463 -88.35742188 96.29882812 C-88.3662287 94.6692841 -88.37217974 93.03972164 -88.375 91.41015625 C-88.39655655 90.66610031 -88.4181131 89.92204437 -88.44032288 89.15544128 C-88.38085766 84.51206123 -87.46113522 81.99968841 -84.68408203 78.25073242 C-81.06592795 73.26606002 -80.86127375 69.28085591 -80.984375 63.25 C-80.97778366 62.29322357 -80.97119232 61.33644714 -80.96440125 60.35067749 C-80.94704147 57.32420297 -80.96882694 54.29981192 -80.99609375 51.2734375 C-81.00739457 48.22606238 -81.01007814 45.17929215 -80.99565125 42.13192749 C-80.98826141 40.24326992 -80.99649344 38.35447203 -81.02204895 36.4659729 C-81.02162094 35.61433563 -81.02119293 34.76269836 -81.02075195 33.88525391 C-81.02774612 33.13740631 -81.0347403 32.38955872 -81.04194641 31.61904907 C-80.58163693 29.08776834 -79.68629451 28.21469596 -77.68359375 26.6484375 C-75.421875 26.13671875 -75.421875 26.13671875 -72.99609375 25.9609375 C-71.78373047 25.86232422 -71.78373047 25.86232422 -70.546875 25.76171875 C-69.93199219 25.72433594 -69.31710938 25.68695313 -68.68359375 25.6484375 C-68.40386719 24.81441406 -68.12414062 23.98039062 -67.8359375 23.12109375 C-63.0986502 9.82317794 -56.68202525 2.02975891 -44.23046875 -4.671875 C-29.91228527 -10.95255057 -12.82208351 -8.22700194 0 0 Z " fill="#FEFEFE" transform="translate(87.68359375,7.3515625)"/>
<path d="M0 0 C6.3302841 6.43520594 9.85604982 14.19416779 10.30859375 23.28125 C9.3166747 31.92511598 6.59246342 38.34866867 -0.12890625 44.09375 C-9.07182853 49.71621128 -18.03723009 51.56592477 -28.421875 49.41015625 C-36.08346483 47.28536552 -42.0878499 44.96879726 -46.3984375 38.05859375 C-50.72750003 29.38517165 -51.06017362 20.26861688 -48.12890625 11.09375 C-44.89169605 3.13125716 -39.42668201 -3.10723346 -31.56640625 -6.78125 C-19.6298169 -10.68777015 -9.2329824 -8.26733103 0 0 Z " fill="#030303" transform="translate(82.12890625,21.90625)"/>
<path d="M0 0 C8.25257033 5.87282408 13.99193219 13.92478388 15.98046875 24.01953125 C16.09132813 24.88707031 16.2021875 25.75460938 16.31640625 26.6484375 C17.07566406 26.59042969 17.83492188 26.53242187 18.6171875 26.47265625 C19.61105469 26.42753906 20.60492188 26.38242187 21.62890625 26.3359375 C22.61503906 26.27792969 23.60117188 26.21992187 24.6171875 26.16015625 C27.31640625 26.6484375 27.31640625 26.6484375 28.96411133 28.58959961 C30.83326608 32.8175541 30.70113236 36.50684937 30.65234375 41.078125 C30.6648565 42.94401389 30.67789364 44.80989933 30.69140625 46.67578125 C30.69533321 49.60087368 30.69139531 52.52562381 30.67675781 55.45068359 C30.6681578 58.28534341 30.68991807 61.11858953 30.71484375 63.953125 C30.70149994 64.82000946 30.68815613 65.68689392 30.67440796 66.58004761 C30.75067887 72.89156218 32.32873181 75.78163932 36.31640625 80.6484375 C37.51529703 84.24510984 37.51650839 87.5692576 37.5546875 91.31640625 C37.56275925 92.07004959 37.57083099 92.82369293 37.57914734 93.60017395 C37.59297125 95.19639804 37.60370098 96.79265148 37.61157227 98.38891602 C37.62306547 100.01140075 37.64347519 101.63384847 37.6730957 103.25610352 C38.00721973 121.56199371 38.00721973 121.56199371 31.90380859 128.18017578 C28.92892978 130.92262731 26.34273281 132.29317339 22.31640625 132.6484375 C22.31640625 135.9484375 22.31640625 139.2484375 22.31640625 142.6484375 C-9.03359375 142.6484375 -40.38359375 142.6484375 -72.68359375 142.6484375 C-72.68359375 139.3484375 -72.68359375 136.0484375 -72.68359375 132.6484375 C-73.36421875 132.6071875 -74.04484375 132.5659375 -74.74609375 132.5234375 C-79.90208719 130.98760967 -83.49014538 127.61817426 -86.25512695 123.0546875 C-87.93066152 119.05929214 -88.16853347 115.54679052 -88.1875 111.28515625 C-88.1974852 110.49373734 -88.2074704 109.70231842 -88.21775818 108.88691711 C-88.23288513 107.21869094 -88.23998566 105.55037476 -88.23950195 103.88208008 C-88.24605015 101.35277777 -88.30054116 98.82743463 -88.35742188 96.29882812 C-88.3662287 94.6692841 -88.37217974 93.03972164 -88.375 91.41015625 C-88.39655655 90.66610031 -88.4181131 89.92204437 -88.44032288 89.15544128 C-88.38085766 84.51206123 -87.46113522 81.99968841 -84.68408203 78.25073242 C-81.06592795 73.26606002 -80.86127375 69.28085591 -80.984375 63.25 C-80.97778366 62.29322357 -80.97119232 61.33644714 -80.96440125 60.35067749 C-80.94704147 57.32420297 -80.96882694 54.29981192 -80.99609375 51.2734375 C-81.00739457 48.22606238 -81.01007814 45.17929215 -80.99565125 42.13192749 C-80.98826141 40.24326992 -80.99649344 38.35447203 -81.02204895 36.4659729 C-81.02162094 35.61433563 -81.02119293 34.76269836 -81.02075195 33.88525391 C-81.02774612 33.13740631 -81.0347403 32.38955872 -81.04194641 31.61904907 C-80.58163693 29.08776834 -79.68629451 28.21469596 -77.68359375 26.6484375 C-75.421875 26.13671875 -75.421875 26.13671875 -72.99609375 25.9609375 C-71.78373047 25.86232422 -71.78373047 25.86232422 -70.546875 25.76171875 C-69.93199219 25.72433594 -69.31710938 25.68695313 -68.68359375 25.6484375 C-68.40386719 24.81441406 -68.12414062 23.98039062 -67.8359375 23.12109375 C-63.0986502 9.82317794 -56.68202525 2.02975891 -44.23046875 -4.671875 C-29.91228527 -10.95255057 -12.82208351 -8.22700194 0 0 Z M-35.68359375 -4.3515625 C-35.68359375 -3.6915625 -35.68359375 -3.0315625 -35.68359375 -2.3515625 C-36.48796875 -2.2896875 -37.29234375 -2.2278125 -38.12109375 -2.1640625 C-47.66934332 0.01360846 -53.92948154 5.9340065 -59.68359375 13.6484375 C-63.21867059 19.4623242 -64.25602585 24.91424301 -64.68359375 31.6484375 C-65.34359375 31.6484375 -66.00359375 31.6484375 -66.68359375 31.6484375 C-67.01359375 30.6584375 -67.34359375 29.6684375 -67.68359375 28.6484375 C-72.76663061 28.53522894 -72.76663061 28.53522894 -77.68359375 29.6484375 C-79.40161757 33.08448515 -78.80325555 37.03282646 -78.78125 40.8125 C-78.77983505 41.71970795 -78.7784201 42.62691589 -78.77696228 43.56161499 C-78.77135471 46.46558905 -78.75880093 49.36948665 -78.74609375 52.2734375 C-78.74107973 54.23958222 -78.73651665 56.20572815 -78.73242188 58.171875 C-78.72138281 62.9974254 -78.7041131 67.82291847 -78.68359375 72.6484375 C-77.03359375 72.6484375 -75.38359375 72.6484375 -73.68359375 72.6484375 C-73.68359375 73.3084375 -73.68359375 73.9684375 -73.68359375 74.6484375 C-74.42609375 74.8753125 -75.16859375 75.1021875 -75.93359375 75.3359375 C-79.77505938 77.16936428 -81.79847787 79.87820574 -83.68359375 83.6484375 C-83.81884832 86.20428254 -83.89622205 88.73160191 -83.921875 91.2890625 C-83.92994675 92.04886414 -83.93801849 92.80866577 -83.94633484 93.5914917 C-83.96017513 95.20208455 -83.97089754 96.81270672 -83.97875977 98.42333984 C-83.99593135 100.8752486 -84.03981009 103.3257941 -84.08398438 105.77734375 C-84.09411531 107.3437401 -84.10263016 108.91014791 -84.109375 110.4765625 C-84.13563713 111.56907318 -84.13563713 111.56907318 -84.16242981 112.68365479 C-84.13702624 118.70827853 -81.95163348 121.88734566 -78.24609375 126.3984375 C-75.69593735 128.43856262 -72.96372769 129.6484375 -69.68359375 129.6484375 C-69.35359375 129.9784375 -69.02359375 130.3084375 -68.68359375 130.6484375 C-65.94470955 130.74359961 -63.23111434 130.77398344 -60.49194336 130.76196289 C-59.63348312 130.76210892 -58.77502289 130.76225494 -57.89054871 130.7624054 C-55.03898637 130.76170597 -52.1874885 130.7539122 -49.3359375 130.74609375 C-47.36438533 130.74422968 -45.3928327 130.74280572 -43.42127991 130.74180603 C-38.22133108 130.73798001 -33.02141 130.72814902 -27.82147217 130.71710205 C-22.51965714 130.70688972 -17.21783765 130.70230879 -11.91601562 130.69726562 C-1.50519612 130.68652683 8.90560276 130.66944941 19.31640625 130.6484375 C19.64640625 129.9884375 19.97640625 129.3284375 20.31640625 128.6484375 C20.99703125 128.9371875 21.67765625 129.2259375 22.37890625 129.5234375 C26.32472489 129.69134468 27.69402021 128.28376375 30.66796875 125.875 C36.08173322 118.56256932 35.77786959 109.88123485 35.69140625 101.1484375 C35.70300781 99.97667969 35.71460937 98.80492188 35.7265625 97.59765625 C35.77211379 86.52710394 35.77211379 86.52710394 30.79370117 76.99780273 C28.99438996 75.42416674 28.99438996 75.42416674 26.31640625 73.6484375 C26.64640625 73.3184375 26.97640625 72.9884375 27.31640625 72.6484375 C27.43000918 69.56932091 27.4805973 66.51348284 27.484375 63.43359375 C27.4877034 62.50751816 27.4910318 61.58144257 27.49446106 60.62730408 C27.49953433 58.66438292 27.50186926 56.7014531 27.50170898 54.73852539 C27.50389442 51.72723239 27.52204299 48.71630616 27.54101562 45.70507812 C27.54394961 43.80208459 27.54593437 41.89908931 27.546875 39.99609375 C27.55765327 38.63823509 27.55765327 38.63823509 27.56864929 37.25294495 C27.56403435 35.9967057 27.56403435 35.9967057 27.55932617 34.71508789 C27.56075119 33.97641983 27.56217621 33.23775177 27.56364441 32.47669983 C27.47065666 30.39870914 27.47065666 30.39870914 25.31640625 28.6484375 C23.14102941 28.36800766 23.14102941 28.36800766 20.75390625 28.4609375 C19.94824219 28.46738281 19.14257812 28.47382812 18.3125 28.48046875 C16.3176074 28.43212838 16.3176074 28.43212838 15.31640625 29.6484375 C15.09726563 28.89820313 14.878125 28.14796875 14.65234375 27.375 C10.47109634 13.8794291 4.89012984 5.23606687 -7.62109375 -1.6640625 C-16.50808573 -5.78070093 -26.17646668 -6.25298791 -35.68359375 -4.3515625 Z " fill="#070707" transform="translate(87.68359375,7.3515625)"/>
<path d="M0 0 C9.02298455 8.15637022 12.71146031 18.57608583 13.64453125 30.41015625 C13.97812205 41.34081469 10.84227861 50.57029657 3.44140625 58.65234375 C-5.48885414 67.14647514 -17.04553495 68.75739444 -28.93896484 68.67163086 C-41.00665037 68.26032504 -50.26232006 63.69660076 -58.48828125 55 C-65.11287203 46.87720476 -67.00492636 36.45773768 -66.23828125 26.25 C-64.23887718 13.38942636 -58.71147219 3.99729193 -48.23828125 -3.75 C-33.2794355 -13.72256383 -13.57242931 -10.61160267 0 0 Z M-46.92578125 8.81640625 C-53.9109231 16.3428966 -56.58419612 25.0455112 -56.23828125 35.25 C-54.9613245 42.6919365 -52.15419886 49.11481467 -46.17578125 53.9375 C-38.90790849 58.75168922 -29.80343024 60.24814335 -21.23828125 59.25 C-11.29872313 57.21791256 -4.04468755 52.64554262 1.76171875 44.25 C5.37879267 36.02792889 4.166503 27.4881468 1.2109375 19.28515625 C-2.60578491 11.29164329 -8.75149191 5.59874745 -16.8359375 2.0859375 C-27.75042772 -1.71195015 -38.50345028 0.99845551 -46.92578125 8.81640625 Z " fill="#FEFEFE" transform="translate(88.23828125,12.75)"/>
<path d="M0 0 C8.58368954 6.65943387 12.07637068 16.58866317 15.02734375 26.69140625 C15.35734375 26.36140625 15.68734375 26.03140625 16.02734375 25.69140625 C18.0234375 25.5234375 18.0234375 25.5234375 20.46484375 25.50390625 C21.26792969 25.48972656 22.07101563 25.47554687 22.8984375 25.4609375 C25.02734375 25.69140625 25.02734375 25.69140625 27.02734375 27.69140625 C27.27458191 29.51966858 27.27458191 29.51966858 27.27026367 31.75805664 C27.27487862 33.01429588 27.27487862 33.01429588 27.27958679 34.2959137 C27.26880852 35.65377235 27.26880852 35.65377235 27.2578125 37.0390625 C27.25735428 37.96609482 27.25689606 38.89312714 27.25642395 39.84825134 C27.25340029 41.80941039 27.2455106 43.770567 27.2331543 45.73168945 C27.21489747 48.74504027 27.21264457 51.75808403 27.21289062 54.77148438 C27.2079756 56.67317976 27.20214734 58.57487305 27.1953125 60.4765625 C27.19419968 61.38382584 27.19308685 62.29108917 27.19194031 63.22584534 C27.14338823 69.57536177 27.14338823 69.57536177 26.02734375 70.69140625 C26.95546875 71.33078125 27.88359375 71.97015625 28.83984375 72.62890625 C33.56277545 76.63429033 34.76227538 81.77656746 35.31079102 87.80834961 C35.42970707 91.27458854 35.4366804 94.72340423 35.40234375 98.19140625 C35.41394531 99.36316406 35.42554687 100.53492187 35.4375 101.7421875 C35.41172309 109.39793016 35.06830747 116.5839434 30.37890625 122.91796875 C25.68550298 126.71941303 25.68550298 126.71941303 22.08984375 126.56640625 C21.40921875 126.27765625 20.72859375 125.98890625 20.02734375 125.69140625 C19.69734375 126.35140625 19.36734375 127.01140625 19.02734375 127.69140625 C-10.01265625 127.69140625 -39.05265625 127.69140625 -68.97265625 127.69140625 C-68.97265625 127.36140625 -68.97265625 127.03140625 -68.97265625 126.69140625 C-40.26265625 126.69140625 -11.55265625 126.69140625 18.02734375 126.69140625 C17.96546875 118.31765625 17.90359375 109.94390625 17.83984375 101.31640625 C17.83315674 98.69268066 17.82646973 96.06895508 17.81958008 93.36572266 C17.79310654 91.25811292 17.76482325 89.15052481 17.734375 87.04296875 C17.73836304 85.97135498 17.74235107 84.89974121 17.74645996 83.7956543 C17.59799125 75.84756871 15.94608954 68.87081285 10.36213684 62.91543579 C9.92165512 62.51150604 9.4811734 62.10757629 9.02734375 61.69140625 C6.66974221 62.73922916 4.91391383 63.79108709 2.96484375 65.50390625 C-5.78592465 72.02043591 -14.49086549 73.88215044 -25.09765625 73.94140625 C-25.99742188 73.96203125 -26.8971875 73.98265625 -27.82421875 74.00390625 C-34.38785913 74.04162832 -42.48428483 73.80657436 -47.62939453 69.21191406 C-48.0726709 68.71014648 -48.51594727 68.20837891 -48.97265625 67.69140625 C-49.63265625 67.03140625 -50.29265625 66.37140625 -50.97265625 65.69140625 C-48.97265625 64.69140625 -48.97265625 64.69140625 -46.73046875 65.43359375 C-45.42722656 65.99433594 -45.42722656 65.99433594 -44.09765625 66.56640625 C-32.42701584 71.54820201 -17.81601369 71.32044714 -5.97265625 66.69140625 C2.06304029 62.6984363 7.69027144 56.81795167 10.83984375 48.37890625 C14.57039425 35.41080212 13.13738044 23.22436451 6.71484375 11.3828125 C1.82382274 3.58208686 -5.78914589 -2.65002944 -14.92041016 -4.75830078 C-21.90219114 -5.99405791 -28.88674475 -6.40038017 -35.97265625 -6.30859375 C-35.97265625 -6.63859375 -35.97265625 -6.96859375 -35.97265625 -7.30859375 C-22.80785971 -9.94155306 -11.14369496 -7.3923521 0 0 Z " fill="#202020" transform="translate(87.97265625,10.30859375)"/>
<path d="M0 0 C2.37963814 3.56945721 2.45184724 5.81801875 2.875 10.0625 C4.24007597 21.46731305 7.59732682 29.01564172 16 37 C16.99 37.495 16.99 37.495 18 38 C18.33 38.99 18.66 39.98 19 41 C20.49985609 42.66710346 20.49985609 42.66710346 22 44 C16.40717158 42.63589551 13.08806189 39.84616474 9 36 C4.85014764 37.81827913 3.31048407 40.09607865 1 44 C-0.00685387 47.02056161 -0.15372686 49.13554614 -0.20532227 52.29760742 C-0.22526749 53.37850143 -0.24521271 54.45939545 -0.26576233 55.57304382 C-0.29083107 57.32159416 -0.29083107 57.32159416 -0.31640625 59.10546875 C-0.33718735 60.29981033 -0.35796844 61.49415192 -0.37937927 62.72468567 C-0.44484276 66.54556443 -0.5037451 70.36651276 -0.5625 74.1875 C-0.60568824 76.77539786 -0.64930263 79.36328865 -0.69335938 81.95117188 C-0.80052092 88.30070739 -0.9022934 94.65031234 -1 101 C-4.84926685 101 -6.70069605 99.97958237 -10 98 C-15.03878453 92.96121547 -16.16852153 89.31404355 -16.23828125 82.359375 C-16.246353 81.59957336 -16.25442474 80.83977173 -16.26274109 80.0569458 C-16.27658138 78.44635295 -16.28730379 76.83573078 -16.29516602 75.22509766 C-16.3123376 72.7731889 -16.35621634 70.3226434 -16.40039062 67.87109375 C-16.41052156 66.3046974 -16.41903641 64.73828959 -16.42578125 63.171875 C-16.45204338 62.07936432 -16.45204338 62.07936432 -16.47883606 60.96478271 C-16.45715218 55.8223067 -15.20967225 52.97200196 -12 49 C-8.6 46 -8.6 46 -6 46 C-6 45.34 -6 44.68 -6 44 C-7.65 44 -9.3 44 -11 44 C-11.02467332 38.19759432 -11.04284724 32.39521902 -11.05493164 26.59277344 C-11.0599681 24.61783313 -11.06679751 22.64289657 -11.07543945 20.66796875 C-11.08753508 17.83332395 -11.0932351 14.99872834 -11.09765625 12.1640625 C-11.10281754 11.27756012 -11.10797882 10.39105774 -11.11329651 9.47769165 C-11.11387171 3.22774341 -11.11387171 3.22774341 -10 1 C-6.457201 -0.180933 -3.71640139 -0.27028374 0 0 Z " fill="#2A2A2A" transform="translate(20,36)"/>
<path d="M0 0 C1.11246094 -0.00257812 2.22492187 -0.00515625 3.37109375 -0.0078125 C4.53769531 -0.00007813 5.70429687 0.00765625 6.90625 0.015625 C8.07285156 0.00789063 9.23945312 0.00015625 10.44140625 -0.0078125 C11.55386719 -0.00523438 12.66632812 -0.00265625 13.8125 0 C14.83666016 0.00225586 15.86082031 0.00451172 16.91601562 0.00683594 C19.40625 0.265625 19.40625 0.265625 21.40625 2.265625 C21.85920333 5.89207004 21.73029802 9.55164238 21.71875 13.203125 C21.73486328 14.21826172 21.75097656 15.23339844 21.76757812 16.27929688 C21.76822266 17.25318359 21.76886719 18.22707031 21.76953125 19.23046875 C21.77251221 20.1237085 21.77549316 21.01694824 21.77856445 21.93725586 C21.40625 24.265625 21.40625 24.265625 20.2097168 26.05541992 C17.77715427 27.68777574 16.10545178 27.65343152 13.1875 27.6640625 C12.17300781 27.66792969 11.15851562 27.67179687 10.11328125 27.67578125 C9.05496094 27.66417969 7.99664062 27.65257812 6.90625 27.640625 C5.84792969 27.65222656 4.78960937 27.66382813 3.69921875 27.67578125 C2.17748047 27.66998047 2.17748047 27.66998047 0.625 27.6640625 C-0.30376953 27.66067871 -1.23253906 27.65729492 -2.18945312 27.65380859 C-4.59375 27.265625 -4.59375 27.265625 -6.3972168 26.05541992 C-7.99083177 23.67166327 -7.96656238 22.08645921 -7.95703125 19.23046875 C-7.95638672 18.25658203 -7.95574219 17.28269531 -7.95507812 16.27929688 C-7.93896484 15.26416016 -7.92285156 14.24902344 -7.90625 13.203125 C-7.90947266 12.18412109 -7.91269531 11.16511719 -7.91601562 10.11523438 C-7.84240558 0.01727402 -7.84240558 0.01727402 0 0 Z " fill="#030303" transform="translate(32.59375,100.734375)"/>
<path d="M0 0 C28.71 0 57.42 0 87 0 C87 2.31 87 4.62 87 7 C58.29 7 29.58 7 0 7 C0 4.69 0 2.38 0 0 Z " fill="#FFFFFF" transform="translate(19,140)"/>
<path d="M0 0 C4.93724857 0.76280071 7.36499067 2.52654664 11 6 C13.52015939 9.66248956 13.32278968 13.54647682 13.3359375 17.8359375 C13.3425943 18.59290924 13.3492511 19.34988098 13.35610962 20.12979126 C13.36621599 21.72842995 13.37092726 23.32711065 13.37060547 24.92578125 C13.37497325 27.36008952 13.41129544 29.79257543 13.44921875 32.2265625 C13.45508865 33.783848 13.45905688 35.34114207 13.4609375 36.8984375 C13.47530853 37.62050385 13.48967957 38.34257019 13.50448608 39.08651733 C13.45061447 45.10435618 11.21925007 48.31840617 7.5 52.8125 C5.69463545 54.24174693 4.27209975 54.69705337 2 55 C0.32063825 53.32063825 0.83212121 51.23489172 0.79467773 48.92944336 C0.7647599 47.30787575 0.7647599 47.30787575 0.73423767 45.65354919 C0.71752518 44.4775264 0.70081268 43.3015036 0.68359375 42.08984375 C0.66281265 40.89267227 0.64203156 39.69550079 0.62062073 38.46205139 C0.55499721 34.62059513 0.49618097 30.77906799 0.4375 26.9375 C0.39432695 24.34048733 0.35071307 21.74348194 0.30664062 19.14648438 C0.19930284 12.76439883 0.09756069 6.38224207 0 0 Z " fill="#F8F8F8" transform="translate(108,81)"/>
<path d="M0 0 C0.99 0.33 1.98 0.66 3 1 C2.67 18.49 2.34 35.98 2 54 C1.01 54.495 1.01 54.495 0 55 C-4.65734153 52.79389085 -7.69879376 49.60241248 -10 45 C-10.13525457 42.44415496 -10.2126283 39.91683559 -10.23828125 37.359375 C-10.246353 36.59957336 -10.25442474 35.83977173 -10.26274109 35.0569458 C-10.27658138 33.44635295 -10.28730379 31.83573078 -10.29516602 30.22509766 C-10.3123376 27.7731889 -10.35621634 25.3226434 -10.40039062 22.87109375 C-10.41052156 21.3046974 -10.41903641 19.73828959 -10.42578125 18.171875 C-10.45204338 17.07936432 -10.45204338 17.07936432 -10.47883606 15.96478271 C-10.45713521 10.81828191 -9.2421315 7.95622678 -6 4 C-2.9375 1.5625 -2.9375 1.5625 0 0 Z " fill="#F8F8F8" transform="translate(14,81)"/>
<path d="M0 0 C3.125 0.1875 3.125 0.1875 6.125 2.1875 C6.391487 5.23825084 6.47257146 8.08376179 6.41796875 11.1328125 C6.41372391 12.0178244 6.40947906 12.9028363 6.40510559 13.81466675 C6.38828259 16.64758445 6.35062425 19.47979652 6.3125 22.3125 C6.29745782 24.23045849 6.28376861 26.14842811 6.27148438 28.06640625 C6.23836727 32.77371031 6.18656055 37.48048544 6.125 42.1875 C4.67617264 41.91788066 3.23002381 41.63384145 1.78515625 41.34375 C0.97957275 41.18712891 0.17398926 41.03050781 -0.65600586 40.86914062 C-3.91602455 39.86771338 -5.21140147 38.08071484 -6.875 35.1875 C-6.875 34.5275 -6.875 33.8675 -6.875 33.1875 C-7.865 32.8575 -8.855 32.5275 -9.875 32.1875 C-9.606875 31.548125 -9.33875 30.90875 -9.0625 30.25 C-5.5274512 21.13329519 -3.72521457 13.31193763 -3.9375 3.48046875 C-3.84384738 0.04458812 -3.47263628 0.22647628 0 0 Z " fill="#FEFEFE" transform="translate(107.875,36.8125)"/>
<path d="M0 0 C0.08636719 1.14855469 0.17273437 2.29710937 0.26171875 3.48046875 C0.39887685 5.04990325 0.54117189 6.61889391 0.6875 8.1875 C0.76347412 9.00597412 0.83944824 9.82444824 0.91772461 10.66772461 C1.51828252 16.06852022 2.72514976 20.16685597 5.0625 25.0625 C7.27693104 30.20779564 7.27693104 30.20779564 6.046875 33.7265625 C1.81874992 39.72592917 -0.2915487 40.07288718 -8 42 C-8 28.47 -8 14.94 -8 1 C-5.29120665 -0.35439668 -2.99066732 -0.06501451 0 0 Z " fill="#FEFEFE" transform="translate(19,37)"/>
<path d="M0 0 C0.88558594 0.3609375 1.77117188 0.721875 2.68359375 1.09375 C16.84037728 6.52809698 29.4976447 6.34620275 44 2 C45.66294626 1.64857627 47.32876189 1.30959987 49 1 C49.495 1.99 49.495 1.99 50 3 C48.25197854 3.81674796 46.50149811 4.62823451 44.75 5.4375 C43.28820312 6.11619141 43.28820312 6.11619141 41.796875 6.80859375 C36.13333112 9.22113688 30.96098856 9.21600006 24.875 9.25 C23.52535156 9.2809375 23.52535156 9.2809375 22.1484375 9.3125 C15.58479712 9.35022207 7.48837142 9.11516811 2.34326172 4.52050781 C1.67834717 3.76785645 1.67834717 3.76785645 1 3 C0.34 2.34 -0.32 1.68 -1 1 C-0.67 0.67 -0.34 0.34 0 0 Z " fill="#191919" transform="translate(38,75)"/>
<path d="M0 0 C8.58368954 6.65943387 12.07637068 16.58866317 15.02734375 26.69140625 C15.35734375 26.36140625 15.68734375 26.03140625 16.02734375 25.69140625 C18.69793226 25.55025464 21.35166613 25.64893518 24.02734375 25.69140625 C23.53234375 26.68140625 23.53234375 26.68140625 23.02734375 27.69140625 C21.04734375 27.69140625 19.06734375 27.69140625 17.02734375 27.69140625 C17.02734375 31.32140625 17.02734375 34.95140625 17.02734375 38.69140625 C16.03734375 38.69140625 15.04734375 38.69140625 14.02734375 38.69140625 C12.82213163 36.28098201 12.76030928 34.09002887 12.53442383 31.43530273 C11.53913749 20.59704659 8.44717193 10.69118283 0.04296875 3.21875 C-11.14239164 -5.25697851 -22.16945098 -6.48739175 -35.97265625 -6.30859375 C-35.97265625 -6.63859375 -35.97265625 -6.96859375 -35.97265625 -7.30859375 C-22.80785971 -9.94155306 -11.14369496 -7.3923521 0 0 Z " fill="#232323" transform="translate(87.97265625,10.30859375)"/>
<path d="M0 0 C1.98 0 3.96 0 6 0 C5.67 18.81 5.34 37.62 5 57 C4.01 57 3.02 57 2 57 C0.72764993 54.45529986 0.9304977 52.78483718 1.01000977 49.93945312 C1.03656143 48.88495972 1.0631131 47.83046631 1.09046936 46.74401855 C1.12377853 45.60130493 1.15708771 44.45859131 1.19140625 43.28125 C1.24962138 40.88151701 1.30755549 38.48177719 1.36523438 36.08203125 C1.46248969 32.28291844 1.56294695 28.48394469 1.66870117 24.68505859 C1.76843355 21.02978404 1.85571667 17.3743768 1.94140625 13.71875 C1.97673965 12.57603638 2.01207306 11.43332275 2.04847717 10.25598145 C2.07187668 9.20148804 2.09527618 8.14699463 2.11938477 7.06054688 C2.14460709 6.1294812 2.16982941 5.19841553 2.19581604 4.23913574 C2.22382348 1.79527963 2.22382348 1.79527963 0 0 Z " fill="#1B1B1B" transform="translate(14,80)"/>
<path d="M0 0 C5.87590273 0.80729794 9.06785105 3.72378802 13 8 C17.31104827 14.30256514 17.31104827 14.30256514 16.58984375 18.23828125 C16.39519531 18.81964844 16.20054688 19.40101562 16 20 C12.6252416 18.61584962 11.29752456 17.30687894 9.5625 14.125 C6.80895139 9.44820359 3.48130314 6.98753543 -1 4 C-0.67 2.68 -0.34 1.36 0 0 Z " fill="#FCFCFC" transform="translate(67,23)"/>
<path d="M0 0 C0.33 0 0.66 0 1 0 C1.50070077 8.7483551 1.67781009 18.53812515 -4.375 25.60546875 C-6.25605191 27.21973685 -8.19272264 28.71594293 -10.1875 30.1875 C-10.90292969 30.71730469 -11.61835937 31.24710938 -12.35546875 31.79296875 C-12.89816406 32.19128906 -13.44085938 32.58960938 -14 33 C-13.67 33.66 -13.34 34.32 -13 35 C-14.32 34.67 -15.64 34.34 -17 34 C-16.29875 33.34 -15.5975 32.68 -14.875 32 C-8.9279755 25.98539568 -5.1371128 20.20498665 -3 12 C-2.7215625 10.93136719 -2.443125 9.86273438 -2.15625 8.76171875 C-1.41613802 5.84581461 -0.69812845 2.92619795 0 0 Z " fill="#232323" transform="translate(103,42)"/>
<path d="M0 0 C-8.01595764 6.29825243 -16.15236646 6.16082507 -26 6.0625 C-26.87011719 6.05798828 -27.74023438 6.05347656 -28.63671875 6.04882812 C-30.75784293 6.0371736 -32.8789311 6.01924357 -35 6 C-35 5.67 -35 5.34 -35 5 C-33.19015625 4.94392578 -33.19015625 4.94392578 -31.34375 4.88671875 C-29.72913822 4.82100781 -28.11455622 4.75456229 -26.5 4.6875 C-25.31277344 4.65366211 -25.31277344 4.65366211 -24.1015625 4.61914062 C-17.40686871 4.31733066 -12.35268029 2.52394559 -6.25 -0.25 C-3.70468002 -1.09843999 -2.48321432 -0.91970901 0 0 Z " fill="#080808" transform="translate(88,77)"/>
<path d="M0 0 C2.64 0 5.28 0 8 0 C7.67 0.66 7.34 1.32 7 2 C5.02 2 3.04 2 1 2 C1 5.63 1 9.26 1 13 C0.01 13 -0.98 13 -2 13 C-3.4783226 10.04335481 -3.06032783 7.25770263 -3 4 C-2.34 4 -1.68 4 -1 4 C-0.67 2.68 -0.34 1.36 0 0 Z " fill="#2C2C2C" transform="translate(104,36)"/>
<path d="M0 0 C1.2065625 0.0309375 1.2065625 0.0309375 2.4375 0.0625 C3.5625 3.8125 3.5625 3.8125 2.4375 6.0625 C0.7875 6.0625 -0.8625 6.0625 -2.5625 6.0625 C-2.94468767 4.40635343 -3.27645102 2.73792976 -3.5625 1.0625 C-2.5625 0.0625 -2.5625 0.0625 0 0 Z " fill="#121212" transform="translate(93.5625,106.9375)"/>
<path d="M0 0 C0.33 0.99 0.66 1.98 1 3 C0.54625 3.391875 0.0925 3.78375 -0.375 4.1875 C-2.27934023 6.31157179 -2.98241723 8.35428481 -4 11 C-4.66 11.66 -5.32 12.32 -6 13 C-6.99 12.67 -7.98 12.34 -9 12 C-9 11.34 -9 10.68 -9 10 C-8.34 10 -7.68 10 -7 10 C-6.773125 9.46375 -6.54625 8.9275 -6.3125 8.375 C-4.56617944 5.21499137 -2.3597151 2.7323017 0 0 Z " fill="#262626" transform="translate(26,67)"/>
<path d="M0 0 C1.2065625 0.0309375 1.2065625 0.0309375 2.4375 0.0625 C2.4375 2.0425 2.4375 4.0225 2.4375 6.0625 C0.7875 6.0625 -0.8625 6.0625 -2.5625 6.0625 C-2.94468767 4.40635343 -3.27645102 2.73792976 -3.5625 1.0625 C-2.5625 0.0625 -2.5625 0.0625 0 0 Z " fill="#151515" transform="translate(79.5625,106.9375)"/>
<path d="M0 0 C0.33 0 0.66 0 1 0 C1 4.29 1 8.58 1 13 C0.01 12.67 -0.98 12.34 -2 12 C-2.26252625 7.66831683 -1.29243536 4.1196377 0 0 Z " fill="#0E0E0E" transform="translate(103,42)"/>
<path d="M0 0 C2.64 0.33 5.28 0.66 8 1 C8 1.66 8 2.32 8 3 C7.071875 3.1546875 7.071875 3.1546875 6.125 3.3125 C3.63473516 3.87525373 3.63473516 3.87525373 2 7 C1.34 4.69 0.68 2.38 0 0 Z " fill="#0A0A0A" transform="translate(104,77)"/>
<path d="M0 0 C0.66 0.33 1.32 0.66 2 1 C2.75 3.4375 2.75 3.4375 3 6 C2.34 6.66 1.68 7.32 1 8 C0.01 5.69 -0.98 3.38 -2 1 C-1.34 0.67 -0.68 0.34 0 0 Z " fill="#1F1F1F" transform="translate(23,56)"/>
<path d="M0 0 C1.32 0 2.64 0 4 0 C4.33 0.99 4.66 1.98 5 3 C6.49985609 4.66710346 6.49985609 4.66710346 8 6 C2.25 4.125 2.25 4.125 0 3 C0 2.01 0 1.02 0 0 Z " fill="#1F1F1F" transform="translate(34,74)"/>
<path d="M0 0 C-1.6875 1.5625 -1.6875 1.5625 -4 3 C-6.75 2.6875 -6.75 2.6875 -9 2 C-4.13793103 -1.24137931 -4.13793103 -1.24137931 0 0 Z " fill="#181818" transform="translate(88,77)"/>
</svg>
